<svg width="12" height="9" viewBox="0 0 12 9" fill="none" xmlns="http://www.w3.org/2000/svg">
<path d="M0.238713 0.659017C1.93891 1.67346 4.7408 3.65592 5.61764 4.21239C5.73535 4.2875 5.8616 4.32568 5.99267 4.32568C6.12346 4.32568 6.2495 4.28786 6.36694 4.21311C7.24453 3.65609 10.0179 1.67346 11.7182 0.659017C11.824 0.59598 12.0501 0.682938 11.9644 0.605872C11.7663 0.42779 11.4709 0.325684 11.1543 0.325684H0.831022C0.514476 0.325684 0.219076 0.42779 0.0209899 0.605889C-0.0647097 0.682938 0.132859 0.59598 0.238713 0.659017Z" fill="#2C2C2C"/>
<path d="M11.8385 1.32536C11.7501 1.28705 11.646 1.30041 11.5723 1.35892C9.74841 2.79689 7.32324 4.18995 6.59085 4.80371C6.17978 5.1488 5.80453 5.14926 5.39251 4.80371C4.61186 4.14957 1.89992 2.53251 0.411038 1.3589C0.336915 1.30039 0.232575 1.28748 0.144807 1.32534C0.0565699 1.36345 0 1.44553 0 1.536V7.37498C0 7.8872 0.447855 8.30371 0.998621 8.30371H10.9848C11.5355 8.30371 11.9834 7.8872 11.9834 7.37498V1.536C11.9834 1.44553 11.9268 1.36323 11.8385 1.32536Z" fill="#2C2C2C"/>
</svg>
