<svg width="11" height="11" viewBox="0 0 11 11" fill="none" xmlns="http://www.w3.org/2000/svg">
<path d="M9.68275 7.28469C9.07136 7.28469 8.47105 7.19106 7.90218 7.00699C7.62343 6.9139 7.28075 6.9993 7.11062 7.17039L5.98779 8.00033C4.68561 7.31973 3.8835 6.5346 3.19789 5.26917L4.02058 4.1984C4.23431 3.9894 4.31098 3.6841 4.21913 3.39764C4.03033 2.83771 3.93442 2.2502 3.93442 1.65131C3.93444 1.21867 3.57497 0.866699 3.13314 0.866699H1.29923C0.857399 0.866699 0.497925 1.21867 0.497925 1.65129C0.497925 6.6102 4.61818 10.6445 9.68275 10.6445C10.1246 10.6445 10.4841 10.2925 10.4841 9.85989V8.06925C10.484 7.63666 10.1246 7.28469 9.68275 7.28469Z" fill="#2C2C2C"/>
</svg>
